<svg xmlns="http://www.w3.org/2000/svg" fill="none" viewBox="0 0 48 48" height="48" width="48" id="Dumbell--Streamline-Plump.svg"><desc>Dumbell Streamline Icon: https://streamlinehq.com</desc><g id="Dumbell--Streamline-Plump.svg"><path id="Rectangle 1096" stroke="#ffffff" stroke-linecap="round" stroke-linejoin="round" d="M9.102 13.727c0.032 -1.321 0.78 -2.503 2.092 -2.655 0.378 -0.044 0.812 -0.072 1.306 -0.072s0.928 0.028 1.306 0.072c1.313 0.152 2.06 1.334 2.092 2.655 0.047 1.944 0.102 5.29 0.102 10.273s-0.055 8.329 -0.102 10.273c-0.032 1.321 -0.78 2.503 -2.092 2.655 -0.378 0.044 -0.812 0.072 -1.306 0.072s-0.928 -0.028 -1.306 -0.072c-1.313 -0.152 -2.06 -1.334 -2.092 -2.655C9.055 32.329 9 28.983 9 24s0.055 -8.329 0.102 -10.273Z" stroke-width="3"></path><path id="Rectangle 1100" stroke="#ffffff" stroke-linecap="round" stroke-linejoin="round" d="M38.898 13.727c-0.032 -1.321 -0.78 -2.503 -2.092 -2.655A11.368 11.368 0 0 0 35.5 11c-0.494 0 -0.928 0.028 -1.306 0.072 -1.313 0.152 -2.06 1.334 -2.092 2.655C32.055 15.671 32 19.017 32 24s0.055 8.329 0.102 10.273c0.032 1.321 0.78 2.503 2.092 2.655 0.378 0.044 0.812 0.072 1.306 0.072s0.928 -0.028 1.306 -0.072c1.313 -0.152 2.06 -1.334 2.092 -2.655 0.047 -1.944 0.102 -5.29 0.102 -10.273s-0.055 -8.329 -0.102 -10.273Z" stroke-width="3"></path><path id="Subtract" stroke="#ffffff" stroke-linecap="round" stroke-linejoin="round" d="M15.993 26.982a1293.09 1293.09 0 0 0 16.014 -0.013" stroke-width="3"></path><path id="Subtract_2" stroke="#ffffff" stroke-linecap="round" stroke-linejoin="round" d="M32.006 21.03c-2.414 -0.017 -5.4 -0.03 -9.007 -0.03 -2.668 0 -4.998 0.007 -7.007 0.018" stroke-width="3"></path><path id="Rectangle 1099" stroke="#ffffff" stroke-linecap="round" stroke-linejoin="round" d="M3.055 18.803c0.036 -1.49 0.984 -2.748 2.474 -2.796a15 15 0 0 1 0.942 0c1.49 0.048 2.438 1.305 2.474 2.796C8.975 20.026 9 21.739 9 24c0 2.26 -0.026 3.974 -0.055 5.197 -0.036 1.49 -0.984 2.748 -2.474 2.796a15 15 0 0 1 -0.942 0c-1.49 -0.048 -2.438 -1.305 -2.474 -2.796C3.025 27.974 3 26.261 3 24c0 -2.26 0.026 -3.974 0.055 -5.197Z" stroke-width="3"></path><path id="Rectangle 1101" stroke="#ffffff" stroke-linecap="round" stroke-linejoin="round" d="M44.945 18.803c-0.036 -1.49 -0.984 -2.748 -2.474 -2.796a14.996 14.996 0 0 0 -0.942 0c-1.49 0.048 -2.438 1.305 -2.474 2.796C39.025 20.026 39 21.739 39 24c0 2.26 0.026 3.974 0.055 5.197 0.036 1.49 0.984 2.748 2.474 2.796a14.996 14.996 0 0 0 0.942 0c1.49 -0.048 2.438 -1.305 2.474 -2.796 0.03 -1.223 0.055 -2.936 0.055 -5.197 0 -2.26 -0.026 -3.974 -0.055 -5.197Z" stroke-width="3"></path></g></svg>