<svg xmlns="http://www.w3.org/2000/svg" fill="none" viewBox="0 0 14 14" height="14" width="14" id="Announcement-Megaphone--Streamline-Core.svg"><desc>Announcement Megaphone Streamline Icon: https://streamlinehq.com</desc><g id="announcement-megaphone"><path id="Vector" stroke="#ffffff" stroke-linecap="round" stroke-linejoin="round" d="m7.047 3.70447 3.9078 6.76853" stroke-width="1"></path><path id="Vector_2" stroke="#ffffff" stroke-linecap="round" stroke-linejoin="round" d="M10.7502 10.1174 1.117 12.3542 0.5 11.2855l6.75378 -7.22416" stroke-width="1"></path><path id="Vector_3" stroke="#ffffff" stroke-linecap="round" stroke-linejoin="round" d="m3.21259 11.8671 0.53043 0.9187c0.19243 0.3298 0.508 0.5697 0.87728 0.6668 0.36928 0.0972 0.76202 0.0436 1.09183 -0.1488 0.32981 -0.1924 0.56967 -0.508 0.66681 -0.8773 0.09714 -0.3693 0.04361 -0.762 -0.14882 -1.0918l-0.08495 -0.1471" stroke-width="1"></path><path id="Vector 591" stroke="#ffffff" stroke-linecap="round" stroke-linejoin="round" d="M6.9996 1.84537V0.5" stroke-width="1"></path><path id="Vector 602" stroke="#ffffff" stroke-linecap="round" stroke-linejoin="round" d="m12.1546 7.00049 1.3454 0" stroke-width="1"></path><path id="Vector 603" stroke="#ffffff" stroke-linecap="round" stroke-linejoin="round" d="m0.500122 7.00049 1.345368 0" stroke-width="1"></path><path id="Vector 605" stroke="#ffffff" stroke-linecap="round" stroke-linejoin="round" d="m2.4025 2.40399 0.95131 0.95132" stroke-width="1"></path><path id="Vector 600" stroke="#ffffff" stroke-linecap="round" stroke-linejoin="round" d="m10.645 3.35506 0.9513 -0.95131" stroke-width="1"></path></g></svg>